<mxfile host="app.diagrams.net" modified="2023-04-20T02:21:36.674Z" agent="Mozilla/5.0 (Windows NT 10.0; Win64; x64) AppleWebKit/537.36 (KHTML, like Gecko) Chrome/112.0.0.0 Safari/537.36" etag="CIygAZr_FgnRShwyM2PV" version="21.2.0" type="device">
  <diagram name="Página-1" id="7_f7UdbyFOGhpTqv55ju">
    <mxGraphModel dx="880" dy="484" grid="1" gridSize="10" guides="1" tooltips="1" connect="1" arrows="1" fold="1" page="1" pageScale="1" pageWidth="827" pageHeight="1169" math="0" shadow="0">
      <root>
        <mxCell id="0" />
        <mxCell id="1" parent="0" />
        <mxCell id="XJ-ADE_tDKSwbCFTzWdY-1" value="" style="rounded=0;whiteSpace=wrap;html=1;" parent="1" vertex="1">
          <mxGeometry x="40" y="20" width="220" height="230" as="geometry" />
        </mxCell>
        <mxCell id="XJ-ADE_tDKSwbCFTzWdY-2" value="" style="rounded=0;whiteSpace=wrap;html=1;" parent="1" vertex="1">
          <mxGeometry x="330" y="15" width="190" height="240" as="geometry" />
        </mxCell>
        <mxCell id="XJ-ADE_tDKSwbCFTzWdY-7" value="PLANTA" style="text;strokeColor=none;align=center;fillColor=none;html=1;verticalAlign=middle;whiteSpace=wrap;rounded=0;" parent="1" vertex="1">
          <mxGeometry x="340" y="17.5" width="170" height="40" as="geometry" />
        </mxCell>
        <mxCell id="XJ-ADE_tDKSwbCFTzWdY-8" value="contraseña" style="text;strokeColor=none;align=center;fillColor=none;html=1;verticalAlign=middle;whiteSpace=wrap;rounded=0;" parent="1" vertex="1">
          <mxGeometry x="55" y="140" width="200" height="40" as="geometry" />
        </mxCell>
        <mxCell id="XJ-ADE_tDKSwbCFTzWdY-9" value="Nombre_usuario" style="text;strokeColor=none;align=center;fillColor=none;html=1;verticalAlign=middle;whiteSpace=wrap;rounded=0;" parent="1" vertex="1">
          <mxGeometry x="49" y="90" width="200" height="40" as="geometry" />
        </mxCell>
        <mxCell id="XJ-ADE_tDKSwbCFTzWdY-10" value="Mail" style="text;strokeColor=none;align=center;fillColor=none;html=1;verticalAlign=middle;whiteSpace=wrap;rounded=0;" parent="1" vertex="1">
          <mxGeometry x="60" y="112.5" width="190" height="40" as="geometry" />
        </mxCell>
        <mxCell id="XJ-ADE_tDKSwbCFTzWdY-11" value="USUARIO" style="text;strokeColor=none;align=center;fillColor=none;html=1;verticalAlign=middle;whiteSpace=wrap;rounded=0;" parent="1" vertex="1">
          <mxGeometry x="60" y="30" width="190" height="40" as="geometry" />
        </mxCell>
        <mxCell id="XJ-ADE_tDKSwbCFTzWdY-12" value="Taxonomía" style="text;strokeColor=none;align=center;fillColor=none;html=1;verticalAlign=middle;whiteSpace=wrap;rounded=0;" parent="1" vertex="1">
          <mxGeometry x="345" y="100" width="160" height="40" as="geometry" />
        </mxCell>
        <mxCell id="XJ-ADE_tDKSwbCFTzWdY-17" value="id" style="text;strokeColor=none;align=center;fillColor=none;html=1;verticalAlign=middle;whiteSpace=wrap;rounded=0;" parent="1" vertex="1">
          <mxGeometry x="50" y="60" width="200" height="40" as="geometry" />
        </mxCell>
        <mxCell id="XJ-ADE_tDKSwbCFTzWdY-22" value="Precio" style="text;strokeColor=none;align=center;fillColor=none;html=1;verticalAlign=middle;whiteSpace=wrap;rounded=0;" parent="1" vertex="1">
          <mxGeometry x="360" y="155" width="130" height="40" as="geometry" />
        </mxCell>
        <mxCell id="XJ-ADE_tDKSwbCFTzWdY-23" value="Tamaño" style="text;strokeColor=none;align=center;fillColor=none;html=1;verticalAlign=middle;whiteSpace=wrap;rounded=0;" parent="1" vertex="1">
          <mxGeometry x="340" y="130" width="170" height="40" as="geometry" />
        </mxCell>
        <mxCell id="XJ-ADE_tDKSwbCFTzWdY-24" value="Imagen" style="text;strokeColor=none;align=center;fillColor=none;html=1;verticalAlign=middle;whiteSpace=wrap;rounded=0;" parent="1" vertex="1">
          <mxGeometry x="340" y="180" width="160" height="40" as="geometry" />
        </mxCell>
        <mxCell id="XJ-ADE_tDKSwbCFTzWdY-25" value="" style="whiteSpace=wrap;html=1;aspect=fixed;" parent="1" vertex="1">
          <mxGeometry x="40" y="290" width="220" height="220" as="geometry" />
        </mxCell>
        <mxCell id="XJ-ADE_tDKSwbCFTzWdY-26" value="id" style="text;strokeColor=none;align=center;fillColor=none;html=1;verticalAlign=middle;whiteSpace=wrap;rounded=0;" parent="1" vertex="1">
          <mxGeometry x="350" y="50" width="150" height="40" as="geometry" />
        </mxCell>
        <mxCell id="XJ-ADE_tDKSwbCFTzWdY-27" value="dpto" style="text;strokeColor=none;align=center;fillColor=none;html=1;verticalAlign=middle;whiteSpace=wrap;rounded=0;" parent="1" vertex="1">
          <mxGeometry x="47" y="445" width="200" height="40" as="geometry" />
        </mxCell>
        <mxCell id="XJ-ADE_tDKSwbCFTzWdY-28" value="Piso" style="text;strokeColor=none;align=center;fillColor=none;html=1;verticalAlign=middle;whiteSpace=wrap;rounded=0;" parent="1" vertex="1">
          <mxGeometry x="49" y="410" width="200" height="40" as="geometry" />
        </mxCell>
        <mxCell id="XJ-ADE_tDKSwbCFTzWdY-29" value="altura" style="text;strokeColor=none;align=center;fillColor=none;html=1;verticalAlign=middle;whiteSpace=wrap;rounded=0;" parent="1" vertex="1">
          <mxGeometry x="60" y="370" width="180" height="40" as="geometry" />
        </mxCell>
        <mxCell id="XJ-ADE_tDKSwbCFTzWdY-30" value="Calle" style="text;strokeColor=none;align=center;fillColor=none;html=1;verticalAlign=middle;whiteSpace=wrap;rounded=0;" parent="1" vertex="1">
          <mxGeometry x="50" y="340" width="200" height="40" as="geometry" />
        </mxCell>
        <mxCell id="XJ-ADE_tDKSwbCFTzWdY-31" value="DOMICILIO" style="text;strokeColor=none;align=center;fillColor=none;html=1;verticalAlign=middle;whiteSpace=wrap;rounded=0;" parent="1" vertex="1">
          <mxGeometry x="54" y="280" width="190" height="40" as="geometry" />
        </mxCell>
        <mxCell id="XJ-ADE_tDKSwbCFTzWdY-36" value="" style="edgeStyle=entityRelationEdgeStyle;fontSize=12;html=1;endArrow=ERmandOne;startArrow=ERmandOne;rounded=0;exitX=0;exitY=0;exitDx=0;exitDy=0;" parent="1" source="XJ-ADE_tDKSwbCFTzWdY-25" edge="1">
          <mxGeometry width="100" height="100" relative="1" as="geometry">
            <mxPoint x="180" y="290" as="sourcePoint" />
            <mxPoint x="70" y="250" as="targetPoint" />
          </mxGeometry>
        </mxCell>
        <mxCell id="XJ-ADE_tDKSwbCFTzWdY-37" value="" style="whiteSpace=wrap;html=1;aspect=fixed;" parent="1" vertex="1">
          <mxGeometry x="35" y="550" width="220" height="220" as="geometry" />
        </mxCell>
        <mxCell id="XJ-ADE_tDKSwbCFTzWdY-38" value="" style="edgeStyle=entityRelationEdgeStyle;fontSize=12;html=1;endArrow=ERoneToMany;startArrow=ERzeroToOne;rounded=0;" parent="1" target="XJ-ADE_tDKSwbCFTzWdY-25" edge="1">
          <mxGeometry width="100" height="100" relative="1" as="geometry">
            <mxPoint x="250" y="550" as="sourcePoint" />
            <mxPoint x="460" y="300" as="targetPoint" />
          </mxGeometry>
        </mxCell>
        <mxCell id="XJ-ADE_tDKSwbCFTzWdY-39" value="Ciudad" style="text;strokeColor=none;align=center;fillColor=none;html=1;verticalAlign=middle;whiteSpace=wrap;rounded=0;" parent="1" vertex="1">
          <mxGeometry x="37.5" y="720" width="215" height="60" as="geometry" />
        </mxCell>
        <mxCell id="XJ-ADE_tDKSwbCFTzWdY-40" value="Localidad" style="text;strokeColor=none;align=center;fillColor=none;html=1;verticalAlign=middle;whiteSpace=wrap;rounded=0;" parent="1" vertex="1">
          <mxGeometry x="71.25" y="680" width="147.5" height="50" as="geometry" />
        </mxCell>
        <mxCell id="XJ-ADE_tDKSwbCFTzWdY-41" value="Provincia" style="text;strokeColor=none;align=center;fillColor=none;html=1;verticalAlign=middle;whiteSpace=wrap;rounded=0;" parent="1" vertex="1">
          <mxGeometry x="67.75" y="630" width="151" height="50" as="geometry" />
        </mxCell>
        <mxCell id="XJ-ADE_tDKSwbCFTzWdY-42" value="LOCALIDAD" style="text;strokeColor=none;align=center;fillColor=none;html=1;verticalAlign=middle;whiteSpace=wrap;rounded=0;" parent="1" vertex="1">
          <mxGeometry x="35" y="550" width="210" height="50" as="geometry" />
        </mxCell>
        <mxCell id="XJ-ADE_tDKSwbCFTzWdY-43" value="id" style="text;strokeColor=none;align=center;fillColor=none;html=1;verticalAlign=middle;whiteSpace=wrap;rounded=0;" parent="1" vertex="1">
          <mxGeometry x="50" y="310" width="200" height="40" as="geometry" />
        </mxCell>
        <mxCell id="XJ-ADE_tDKSwbCFTzWdY-44" value="id" style="text;strokeColor=none;align=center;fillColor=none;html=1;verticalAlign=middle;whiteSpace=wrap;rounded=0;" parent="1" vertex="1">
          <mxGeometry x="48" y="590" width="196" height="40" as="geometry" />
        </mxCell>
        <mxCell id="XJ-ADE_tDKSwbCFTzWdY-45" value="" style="rounded=0;whiteSpace=wrap;html=1;" parent="1" vertex="1">
          <mxGeometry x="580" y="15" width="210" height="235" as="geometry" />
        </mxCell>
        <mxCell id="XJ-ADE_tDKSwbCFTzWdY-47" value="" style="edgeStyle=entityRelationEdgeStyle;fontSize=12;html=1;endArrow=ERzeroToMany;startArrow=ERzeroToOne;rounded=0;entryX=1.016;entryY=0.279;entryDx=0;entryDy=0;exitX=0;exitY=0.5;exitDx=0;exitDy=0;entryPerimeter=0;" parent="1" source="XJ-ADE_tDKSwbCFTzWdY-45" target="XJ-ADE_tDKSwbCFTzWdY-2" edge="1">
          <mxGeometry width="100" height="100" relative="1" as="geometry">
            <mxPoint x="360" y="300" as="sourcePoint" />
            <mxPoint x="460" y="200" as="targetPoint" />
          </mxGeometry>
        </mxCell>
        <mxCell id="XJ-ADE_tDKSwbCFTzWdY-48" value="color" style="text;strokeColor=none;align=center;fillColor=none;html=1;verticalAlign=middle;whiteSpace=wrap;rounded=0;" parent="1" vertex="1">
          <mxGeometry x="590" y="152.5" width="200" height="40" as="geometry" />
        </mxCell>
        <mxCell id="XJ-ADE_tDKSwbCFTzWdY-49" value="OTRAS CARACTERÍSTICAS" style="text;strokeColor=none;align=center;fillColor=none;html=1;verticalAlign=middle;whiteSpace=wrap;rounded=0;" parent="1" vertex="1">
          <mxGeometry x="580" y="15" width="210" height="45" as="geometry" />
        </mxCell>
        <mxCell id="XJ-ADE_tDKSwbCFTzWdY-50" value="Tipo de maceta" style="text;strokeColor=none;align=center;fillColor=none;html=1;verticalAlign=middle;whiteSpace=wrap;rounded=0;" parent="1" vertex="1">
          <mxGeometry x="585" y="80" width="205" height="40" as="geometry" />
        </mxCell>
        <mxCell id="XJ-ADE_tDKSwbCFTzWdY-51" value="Descripción" style="text;strokeColor=none;align=center;fillColor=none;html=1;verticalAlign=middle;whiteSpace=wrap;rounded=0;" parent="1" vertex="1">
          <mxGeometry x="590" y="115" width="200" height="40" as="geometry" />
        </mxCell>
        <mxCell id="XJ-ADE_tDKSwbCFTzWdY-53" value="id" style="text;strokeColor=none;align=center;fillColor=none;html=1;verticalAlign=middle;whiteSpace=wrap;rounded=0;" parent="1" vertex="1">
          <mxGeometry x="660" y="50" width="60" height="40" as="geometry" />
        </mxCell>
        <mxCell id="XJ-ADE_tDKSwbCFTzWdY-55" value="" style="rounded=0;whiteSpace=wrap;html=1;" parent="1" vertex="1">
          <mxGeometry x="365" y="335" width="170" height="190" as="geometry" />
        </mxCell>
        <mxCell id="XJ-ADE_tDKSwbCFTzWdY-56" value="" style="edgeStyle=entityRelationEdgeStyle;fontSize=12;html=1;endArrow=ERzeroToMany;startArrow=ERzeroToOne;rounded=0;exitX=1;exitY=1;exitDx=0;exitDy=0;entryX=-0.012;entryY=0.205;entryDx=0;entryDy=0;entryPerimeter=0;" parent="1" source="XJ-ADE_tDKSwbCFTzWdY-1" target="XJ-ADE_tDKSwbCFTzWdY-55" edge="1">
          <mxGeometry width="100" height="100" relative="1" as="geometry">
            <mxPoint x="360" y="370" as="sourcePoint" />
            <mxPoint x="460" y="270" as="targetPoint" />
          </mxGeometry>
        </mxCell>
        <mxCell id="XJ-ADE_tDKSwbCFTzWdY-57" value="" style="edgeStyle=entityRelationEdgeStyle;fontSize=12;html=1;endArrow=ERzeroToMany;startArrow=ERzeroToOne;rounded=0;entryX=0;entryY=0.042;entryDx=0;entryDy=0;exitX=1;exitY=1;exitDx=0;exitDy=0;entryPerimeter=0;" parent="1" source="XJ-ADE_tDKSwbCFTzWdY-2" target="gfaK9zPHiCr7bbwKsHHT-1" edge="1">
          <mxGeometry width="100" height="100" relative="1" as="geometry">
            <mxPoint x="360" y="370" as="sourcePoint" />
            <mxPoint x="460" y="270" as="targetPoint" />
          </mxGeometry>
        </mxCell>
        <mxCell id="XJ-ADE_tDKSwbCFTzWdY-58" value="id_usuario" style="text;strokeColor=none;align=center;fillColor=none;html=1;verticalAlign=middle;whiteSpace=wrap;rounded=0;" parent="1" vertex="1">
          <mxGeometry x="405" y="405" width="90" height="40" as="geometry" />
        </mxCell>
        <mxCell id="XJ-ADE_tDKSwbCFTzWdY-60" value="Factura" style="text;strokeColor=none;align=center;fillColor=none;html=1;verticalAlign=middle;whiteSpace=wrap;rounded=0;" parent="1" vertex="1">
          <mxGeometry x="415" y="340" width="60" height="40" as="geometry" />
        </mxCell>
        <mxCell id="XJ-ADE_tDKSwbCFTzWdY-61" value="id" style="text;strokeColor=none;align=center;fillColor=none;html=1;verticalAlign=middle;whiteSpace=wrap;rounded=0;" parent="1" vertex="1">
          <mxGeometry x="390" y="370" width="130" height="40" as="geometry" />
        </mxCell>
        <mxCell id="S5gB8VJomiKhcLn90oXR-2" value="Tipo de usuario" style="text;html=1;strokeColor=none;fillColor=none;align=center;verticalAlign=middle;whiteSpace=wrap;rounded=0;" parent="1" vertex="1">
          <mxGeometry x="91.25" y="170" width="117.5" height="30" as="geometry" />
        </mxCell>
        <mxCell id="S5gB8VJomiKhcLn90oXR-3" value="FK_Domicilio" style="text;html=1;strokeColor=none;fillColor=none;align=center;verticalAlign=middle;whiteSpace=wrap;rounded=0;" parent="1" vertex="1">
          <mxGeometry x="87.5" y="210" width="125" height="30" as="geometry" />
        </mxCell>
        <mxCell id="S5gB8VJomiKhcLn90oXR-4" value="Nombre vulgar" style="text;html=1;strokeColor=none;fillColor=none;align=center;verticalAlign=middle;whiteSpace=wrap;rounded=0;" parent="1" vertex="1">
          <mxGeometry x="380" y="80" width="90" height="30" as="geometry" />
        </mxCell>
        <mxCell id="S5gB8VJomiKhcLn90oXR-5" value="FK_Otras...." style="text;html=1;strokeColor=none;fillColor=none;align=center;verticalAlign=middle;whiteSpace=wrap;rounded=0;" parent="1" vertex="1">
          <mxGeometry x="365" y="220" width="110" height="30" as="geometry" />
        </mxCell>
        <mxCell id="S5gB8VJomiKhcLn90oXR-7" value="FK_factura" style="text;html=1;strokeColor=none;fillColor=none;align=center;verticalAlign=middle;whiteSpace=wrap;rounded=0;" parent="1" vertex="1">
          <mxGeometry x="640" y="460" width="110" height="30" as="geometry" />
        </mxCell>
        <mxCell id="S5gB8VJomiKhcLn90oXR-8" value="Monto total" style="text;html=1;strokeColor=none;fillColor=none;align=center;verticalAlign=middle;whiteSpace=wrap;rounded=0;" parent="1" vertex="1">
          <mxGeometry x="412.5" y="460" width="75" height="30" as="geometry" />
        </mxCell>
        <mxCell id="S5gB8VJomiKhcLn90oXR-9" value="FK_Localidad" style="text;html=1;strokeColor=none;fillColor=none;align=center;verticalAlign=middle;whiteSpace=wrap;rounded=0;" parent="1" vertex="1">
          <mxGeometry x="86.25" y="480" width="117.5" height="30" as="geometry" />
        </mxCell>
        <mxCell id="gfaK9zPHiCr7bbwKsHHT-1" value="Detalle Factura" style="shape=table;startSize=30;container=1;collapsible=1;childLayout=tableLayout;fixedRows=1;rowLines=0;fontStyle=1;align=center;resizeLast=1;html=1;" vertex="1" parent="1">
          <mxGeometry x="630" y="340" width="180" height="160" as="geometry">
            <mxRectangle x="630" y="340" width="130" height="30" as="alternateBounds" />
          </mxGeometry>
        </mxCell>
        <mxCell id="gfaK9zPHiCr7bbwKsHHT-2" value="" style="shape=tableRow;horizontal=0;startSize=0;swimlaneHead=0;swimlaneBody=0;fillColor=none;collapsible=0;dropTarget=0;points=[[0,0.5],[1,0.5]];portConstraint=eastwest;top=0;left=0;right=0;bottom=1;" vertex="1" parent="gfaK9zPHiCr7bbwKsHHT-1">
          <mxGeometry y="30" width="180" height="30" as="geometry" />
        </mxCell>
        <mxCell id="gfaK9zPHiCr7bbwKsHHT-3" value="PK" style="shape=partialRectangle;connectable=0;fillColor=none;top=0;left=0;bottom=0;right=0;fontStyle=1;overflow=hidden;whiteSpace=wrap;html=1;" vertex="1" parent="gfaK9zPHiCr7bbwKsHHT-2">
          <mxGeometry width="30" height="30" as="geometry">
            <mxRectangle width="30" height="30" as="alternateBounds" />
          </mxGeometry>
        </mxCell>
        <mxCell id="gfaK9zPHiCr7bbwKsHHT-4" value="id" style="shape=partialRectangle;connectable=0;fillColor=none;top=0;left=0;bottom=0;right=0;align=left;spacingLeft=6;fontStyle=5;overflow=hidden;whiteSpace=wrap;html=1;" vertex="1" parent="gfaK9zPHiCr7bbwKsHHT-2">
          <mxGeometry x="30" width="150" height="30" as="geometry">
            <mxRectangle width="150" height="30" as="alternateBounds" />
          </mxGeometry>
        </mxCell>
        <mxCell id="gfaK9zPHiCr7bbwKsHHT-5" value="" style="shape=tableRow;horizontal=0;startSize=0;swimlaneHead=0;swimlaneBody=0;fillColor=none;collapsible=0;dropTarget=0;points=[[0,0.5],[1,0.5]];portConstraint=eastwest;top=0;left=0;right=0;bottom=0;" vertex="1" parent="gfaK9zPHiCr7bbwKsHHT-1">
          <mxGeometry y="60" width="180" height="30" as="geometry" />
        </mxCell>
        <mxCell id="gfaK9zPHiCr7bbwKsHHT-6" value="" style="shape=partialRectangle;connectable=0;fillColor=none;top=0;left=0;bottom=0;right=0;editable=1;overflow=hidden;whiteSpace=wrap;html=1;" vertex="1" parent="gfaK9zPHiCr7bbwKsHHT-5">
          <mxGeometry width="30" height="30" as="geometry">
            <mxRectangle width="30" height="30" as="alternateBounds" />
          </mxGeometry>
        </mxCell>
        <mxCell id="gfaK9zPHiCr7bbwKsHHT-7" value="cantidad" style="shape=partialRectangle;connectable=0;fillColor=none;top=0;left=0;bottom=0;right=0;align=left;spacingLeft=6;overflow=hidden;whiteSpace=wrap;html=1;" vertex="1" parent="gfaK9zPHiCr7bbwKsHHT-5">
          <mxGeometry x="30" width="150" height="30" as="geometry">
            <mxRectangle width="150" height="30" as="alternateBounds" />
          </mxGeometry>
        </mxCell>
        <mxCell id="gfaK9zPHiCr7bbwKsHHT-8" value="" style="shape=tableRow;horizontal=0;startSize=0;swimlaneHead=0;swimlaneBody=0;fillColor=none;collapsible=0;dropTarget=0;points=[[0,0.5],[1,0.5]];portConstraint=eastwest;top=0;left=0;right=0;bottom=0;" vertex="1" parent="gfaK9zPHiCr7bbwKsHHT-1">
          <mxGeometry y="90" width="180" height="30" as="geometry" />
        </mxCell>
        <mxCell id="gfaK9zPHiCr7bbwKsHHT-9" value="" style="shape=partialRectangle;connectable=0;fillColor=none;top=0;left=0;bottom=0;right=0;editable=1;overflow=hidden;whiteSpace=wrap;html=1;" vertex="1" parent="gfaK9zPHiCr7bbwKsHHT-8">
          <mxGeometry width="30" height="30" as="geometry">
            <mxRectangle width="30" height="30" as="alternateBounds" />
          </mxGeometry>
        </mxCell>
        <mxCell id="gfaK9zPHiCr7bbwKsHHT-10" value="FK_Producto" style="shape=partialRectangle;connectable=0;fillColor=none;top=0;left=0;bottom=0;right=0;align=left;spacingLeft=6;overflow=hidden;whiteSpace=wrap;html=1;" vertex="1" parent="gfaK9zPHiCr7bbwKsHHT-8">
          <mxGeometry x="30" width="150" height="30" as="geometry">
            <mxRectangle width="150" height="30" as="alternateBounds" />
          </mxGeometry>
        </mxCell>
        <mxCell id="gfaK9zPHiCr7bbwKsHHT-16" value="" style="edgeStyle=entityRelationEdgeStyle;fontSize=12;html=1;endArrow=ERzeroToMany;endFill=1;rounded=0;exitX=0.994;exitY=0.189;exitDx=0;exitDy=0;exitPerimeter=0;entryX=-0.011;entryY=-0.067;entryDx=0;entryDy=0;entryPerimeter=0;" edge="1" parent="1" source="XJ-ADE_tDKSwbCFTzWdY-55" target="gfaK9zPHiCr7bbwKsHHT-2">
          <mxGeometry width="100" height="100" relative="1" as="geometry">
            <mxPoint x="635" y="390" as="sourcePoint" />
            <mxPoint x="595" y="370" as="targetPoint" />
          </mxGeometry>
        </mxCell>
      </root>
    </mxGraphModel>
  </diagram>
</mxfile>
